<?xml version="1.0" encoding="UTF-8"?>
<svg width="567px" height="281px" viewBox="0 0 567 281" version="1.1" xmlns="http://www.w3.org/2000/svg" xmlns:xlink="http://www.w3.org/1999/xlink">
    <!-- Generator: Sketch 49.2 (51160) - http://www.bohemiancoding.com/sketch -->
    <title>passable</title>
    <desc>Created with Sketch.</desc>
    <defs></defs>
    <g id="Page-1" stroke="none" stroke-width="1" fill="none" fill-rule="evenodd">
        <g id="passable">
            <rect id="Rectangle-6" fill="#FFFFFF" x="0" y="0" width="567" height="281"></rect>
            <g id="pic2" transform="translate(49.000000, 45.000000)">
                <g id="Group-6" transform="translate(44.000000, 149.000000)">
                    <polygon id="Rectangle" fill="#3B99D9" points="24 16.9637895 43 7 43 18.5 24 30"></polygon>
                    <polygon id="Rectangle" fill="#35495D" points="1 9 24 16.7714678 24 30 1 21.3075656"></polygon>
                    <polygon id="Rectangle" fill="#2F80B6" points="21.0638464 0 43.0361423 7.01236226 24.1910854 17 0.963920396 9.10316634"></polygon>
                </g>
                <g id="Group-6" transform="translate(100.000000, 149.000000)">
                    <polygon id="Rectangle" fill="#3B99D9" points="24 16.9637895 43 7 43 18.5 24 30"></polygon>
                    <polygon id="Rectangle" fill="#35495D" points="1 9 24 16.7714678 24 30 1 21.3075656"></polygon>
                    <polygon id="Rectangle" fill="#2F80B6" points="21.0638464 0 43.0361423 7.01236226 24.1910854 17 0.963920396 9.10316634"></polygon>
                </g>
                <path d="M121.5,105.87037 L121.5,151.12963" id="Line-8" stroke="#50E3C2" stroke-linecap="square"></path>
                <polygon id="Triangle-2" fill="#50E3C2" points="121.5 155 119 150 124 150"></polygon>
                <path d="M65.5,106.87037 L65.5,152.12963" id="Line-8" stroke="#50E3C2" stroke-linecap="square"></path>
                <g id="Group-6" transform="translate(44.000000, 75.000000)">
                    <polygon id="Rectangle" fill="#3B99D9" points="52.9422803 38.2783168 97.2115106 15.6151812 97.2115106 41.7725041 52.9422803 67.929827"></polygon>
                    <polygon id="Rectangle" fill="#35495D" points="0.347230445 20.9090586 52.9422803 38.2783168 52.9422803 67.8441334 0.347230445 48.4165115"></polygon>
                    <polygon id="Rectangle" fill="#2F80B6" points="45.7071152 0.520385829 97.3799632 15.6190226 52.7524701 38.5914976 0.505286424 21.0376915"></polygon>
                </g>
                <path d="M92.5,42.8703704 L92.5,88.1296296" id="Line-8" stroke="#50E3C2" stroke-linecap="square"></path>
                <polygon id="Triangle-2" fill="#50E3C2" points="92.5 92 90 87 95 87"></polygon>
                <polygon id="Triangle-2" fill="#50E3C2" transform="translate(81.500000, 101.500000) rotate(98.000000) translate(-81.500000, -101.500000) " points="81.5 104 79 99 84 99"></polygon>
                <polygon id="Triangle-2" fill="#35495D" points="154 125.028653 148 126 149.591152 121"></polygon>
                <polygon id="Triangle-2" fill="#50E3C2" points="65.5 156 63 151 68 151"></polygon>
                <path d="M121.911765,115.833333 L151.088235,124.166667" id="Line-10" stroke="#35495D" stroke-linecap="square"></path>
                <text id="event" transform="translate(46.000000, 77.000000) rotate(91.000000) translate(-46.000000, -77.000000) " font-family="PingFangSC-Regular, PingFang SC" font-size="10" font-weight="normal" fill="#979797">
                    <tspan x="29" y="79">event</tspan>
                </text>
                <text id="method" transform="translate(136.500000, 131.000000) rotate(17.000000) translate(-136.500000, -131.000000) " font-family="PingFangSC-Regular, PingFang SC" font-size="9" font-weight="normal" fill="#35495D">
                    <tspan x="117" y="132">method</tspan>
                </text>
                <text id="data-pipe" font-family="PingFangSC-Regular, PingFang SC" font-size="10" font-weight="normal" fill="#4A90E2">
                    <tspan x="197" y="73">data pipe</tspan>
                </text>
                <ellipse id="Oval-7" stroke="#50E3C2" cx="93" cy="93" rx="26" ry="9"></ellipse>
                <g id="Group-6" transform="translate(44.000000, 0.000000)">
                    <polygon id="Rectangle" fill="#3B99D9" points="52.9422803 38.2783168 97.2115106 15.6151812 97.2115106 41.7725041 52.9422803 67.929827"></polygon>
                    <polygon id="Rectangle" fill="#35495D" points="0.347230445 20.9090586 52.9422803 38.2783168 52.9422803 67.8441334 0.347230445 48.4165115"></polygon>
                    <polygon id="Rectangle" fill="#2F80B6" points="45.7071152 0.520385829 97.3799632 15.6190226 52.7524701 38.5914976 0.505286424 21.0376915"></polygon>
                </g>
                <circle id="Oval-6" fill="#50E3C2" cx="92.5" cy="93.5" r="1.5"></circle>
                <circle id="Oval-6" fill="#50E3C2" cx="65.5" cy="157.5" r="1.5"></circle>
                <circle id="Oval-6" fill="#50E3C2" cx="121.5" cy="156.5" r="1.5"></circle>
                <circle id="Oval-6" fill="#979797" cx="68.5" cy="118.5" r="1.5"></circle>
                <circle id="Oval-6" fill="#979797" cx="70.5" cy="42.5" r="1.5"></circle>
                <circle id="Oval-6" fill="#35495D" cx="121.5" cy="115.5" r="1.5"></circle>
                <polyline id="Path-2" stroke="#979797" points="70 43 55 46.8037549 55 123 68.6578802 118.9333"></polyline>
                <polygon id="Triangle-2" fill="#979797" transform="translate(67.500000, 43.500000) rotate(-103.000000) translate(-67.500000, -43.500000) " points="67.5 46 65 41 70 41"></polygon>
                <polygon id="Triangle-3" fill="#4A90E2" transform="translate(110.106035, 76.376290) rotate(-91.000000) translate(-110.106035, -76.376290) " points="110.106035 73.4063884 113.075936 79.3461911 107.136133 79.3461911"></polygon>
                <polygon id="Triangle-3" fill="#4A90E2" transform="translate(319.469901, 76.469901) rotate(90.000000) translate(-319.469901, -76.469901) " points="319.469901 74 321.939803 78.9398028 317 78.9398028"></polygon>
                <g id="Group-6" transform="translate(288.000000, 149.000000)">
                    <polygon id="Rectangle" fill="#3B99D9" points="24 16.9637895 43 7 43 18.5 24 30"></polygon>
                    <polygon id="Rectangle" fill="#35495D" points="1 9 24 16.7714678 24 30 1 21.3075656"></polygon>
                    <polygon id="Rectangle" fill="#2F80B6" points="21.0638464 0 43.0361423 7.01236226 24.1910854 17 0.963920396 9.10316634"></polygon>
                </g>
                <g id="Group-6" transform="translate(344.000000, 149.000000)">
                    <polygon id="Rectangle" fill="#3B99D9" points="24 16.9637895 43 7 43 18.5 24 30"></polygon>
                    <polygon id="Rectangle" fill="#35495D" points="1 9 24 16.7714678 24 30 1 21.3075656"></polygon>
                    <polygon id="Rectangle" fill="#2F80B6" points="21.0638464 0 43.0361423 7.01236226 24.1910854 17 0.963920396 9.10316634"></polygon>
                </g>
                <path d="M365.5,105.87037 L365.5,151.12963" id="Line-8" stroke="#50E3C2" stroke-linecap="square"></path>
                <polygon id="Triangle-2" fill="#50E3C2" points="365.5 155 363 150 368 150"></polygon>
                <path d="M309.5,106.87037 L309.5,152.12963" id="Line-8" stroke="#50E3C2" stroke-linecap="square"></path>
                <g id="Group-6" transform="translate(288.000000, 75.000000)">
                    <polygon id="Rectangle" fill="#EC7473" points="52.9422803 38.2783168 97.2115106 15.6151812 97.2115106 41.7725041 52.9422803 67.929827"></polygon>
                    <polygon id="Rectangle" fill="#D2323C" points="0.347230445 20.9090586 52.9422803 38.2783168 52.9422803 67.8441334 0.347230445 48.4165115"></polygon>
                    <polygon id="Rectangle" fill="#F28C8B" points="45.7071152 0.520385829 97.3799632 15.6190226 52.7524701 38.5914976 0.505286424 21.0376915"></polygon>
                </g>
                <polygon id="Triangle-2" fill="#50E3C2" points="309.5 156 307 151 312 151"></polygon>
                <polygon id="Triangle-2" fill="#D2323C" transform="translate(336.500000, 103.500000) rotate(92.000000) translate(-336.500000, -103.500000) " points="336.5 106 334 101 339 101"></polygon>
                <path d="M338.5,103 C352.030976,103 363,99.1944204 363,94.5 C363,89.8055796 352.030976,86 338.5,86 C324.969024,86 314,89.8055796 314,94.5 C314,98.0009391 320.100608,101.007534 328.814821,102.310009 C331.785523,102.754027 335.059966,103 338.5,103 Z" id="Oval-7" stroke="#D2323C"></path>
                <circle id="Oval-6" fill="#50E3C2" cx="309.5" cy="157.5" r="1.5"></circle>
                <circle id="Oval-6" fill="#D2323C" cx="329.5" cy="93.5" r="1.5"></circle>
                <circle id="Oval-6" fill="#50E3C2" cx="349.5" cy="93.5" r="1.5"></circle>
                <circle id="Oval-6" fill="#D2323C" cx="349.5" cy="93.5" r="1.5"></circle>
                <circle id="Oval-6" fill="#D2323C" cx="339.5" cy="93.5" r="1.5"></circle>
                <circle id="Oval-6" fill="#50E3C2" cx="365.5" cy="156.5" r="1.5"></circle>
                <g id="Group-6" transform="translate(288.000000, 32.000000)">
                    <polygon id="Rectangle" fill="#3B99D9" points="24 16.9637895 43 7 43 18.5 24 30"></polygon>
                    <polygon id="Rectangle" fill="#35495D" points="1 9 24 16.7714678 24 30 1 21.3075656"></polygon>
                    <polygon id="Rectangle" fill="#2F80B6" points="21.0638464 0 43.0361423 7.01236226 24.1910854 17 0.963920396 9.10316634"></polygon>
                </g>
                <g id="Group-6" transform="translate(344.000000, 32.000000)">
                    <polygon id="Rectangle" fill="#3B99D9" points="24 16.9637895 43 7 43 18.5 24 30"></polygon>
                    <polygon id="Rectangle" fill="#35495D" points="1 9 24 16.7714678 24 30 1 21.3075656"></polygon>
                    <polygon id="Rectangle" fill="#2F80B6" points="21.0638464 0 43.0361423 7.01236226 24.1910854 17 0.963920396 9.10316634"></polygon>
                </g>
                <g id="Group-8" transform="translate(306.000000, 9.000000)">
                    <path d="M59.5,0.518518519 L59.5,27.4814815" id="Line-8" stroke="#50E3C2" stroke-linecap="square"></path>
                    <polygon id="Triangle-2" fill="#50E3C2" points="59.5 30 57 27 62 27"></polygon>
                    <ellipse id="Oval-6" fill="#50E3C2" cx="59.5" cy="31" rx="1.5" ry="1"></ellipse>
                    <polygon id="Triangle-2" fill="#50E3C2" points="2.5 31 -4.4408921e-16 28 5 28"></polygon>
                    <ellipse id="Oval-6" fill="#50E3C2" cx="2.5" cy="32" rx="1.5" ry="1"></ellipse>
                </g>
                <polyline id="Path-6" stroke="#50E3C2" points="308.759215 37.7521438 308.759215 35.4304342 335.971577 23.410526 359.482749 31.4206431 359.482749 27.3170036"></polyline>
                <polyline id="Path-5" stroke="#D2323C" points="354.647072 20.4550762 340.019106 29.0265367 340.019106 93.8381573"></polyline>
                <g id="Group-6" transform="translate(343.000000, 0.000000)">
                    <polygon id="Rectangle" fill="#3B99D9" points="24 16.9637895 43 7 43 18.5 24 30"></polygon>
                    <polygon id="Rectangle" fill="#35495D" points="1 9 24 16.7714678 24 30 1 21.3075656"></polygon>
                    <polygon id="Rectangle" fill="#2F80B6" points="21.0638464 0 43.0361423 7.01236226 24.1910854 17 0.963920396 9.10316634"></polygon>
                </g>
                <circle id="Oval-6" fill="#D2323C" cx="356.5" cy="51.5" r="1.5"></circle>
                <circle id="Oval-6" fill="#D2323C" cx="354.5" cy="20.5" r="1.5"></circle>
                <circle id="Oval-6" fill="#D2323C" cx="321.5" cy="50.5" r="1.5"></circle>
                <polygon id="Triangle-2" fill="#D2323C" transform="translate(324.155987, 50.986464) rotate(92.000000) translate(-324.155987, -50.986464) " points="324.155987 53.0709723 322.071478 48.9019555 326.240495 48.9019555"></polygon>
                <polygon id="Triangle-2" fill="#D2323C" transform="translate(353.867420, 52.303543) rotate(255.000000) translate(-353.867420, -52.303543) " points="353.86742 54.7529661 351.417996 49.8541198 356.316843 49.8541198"></polygon>
                <polygon id="Triangle-2" fill="#D2323C" transform="translate(351.867420, 22.303543) rotate(240.000000) translate(-351.867420, -22.303543) " points="351.86742 24.7529661 349.417996 19.8541198 354.316843 19.8541198"></polygon>
                <polyline id="Path-3" stroke="#D2323C" points="321.720581 51.0242932 329.847556 51.0242932 329.847556 92.6330431"></polyline>
                <polyline id="Path-4" stroke="#D2323C" points="355.968853 51.7199161 349.177998 53.5639731 349.177998 93.492728"></polyline>
                <g id="Group-7" transform="translate(358.000000, 114.000000)">
                    <polygon id="Triangle-2" fill="#35495D" points="39 11.0286534 33 12 34.5911521 7"></polygon>
                    <path d="M6.91176471,1.83333333 L36.0882353,10.1666667" id="Line-10" stroke="#35495D" stroke-linecap="square"></path>
                    <text id="method" transform="translate(21.500000, 17.000000) rotate(17.000000) translate(-21.500000, -17.000000) " font-family="PingFangSC-Regular, PingFang SC" font-size="9" font-weight="normal" fill="#35495D">
                        <tspan x="2" y="18">method</tspan>
                    </text>
                    <circle id="Oval-6" fill="#35495D" cx="6.5" cy="1.5" r="1.5"></circle>
                </g>
                <text id="ViewConnetor" font-family="PingFangSC-Regular, PingFang SC" font-size="10" font-weight="normal" fill="#D2323C">
                    <tspan x="401" y="105">ViewConnetor</tspan>
                </text>
                <text id="View" font-family="PingFangSC-Regular, PingFang SC" font-size="10" font-weight="normal" fill="#D2323C">
                    <tspan x="8" y="109">View</tspan>
                </text>
                <path d="M110.5,76.5 L319.5,76.5" id="Line-9" stroke="#4A90E2" stroke-linecap="square"></path>
                <circle id="Oval-8" fill="#35495D" cx="2" cy="106" r="2"></circle>
                <circle id="Oval-8" fill="#35495D" cx="397" cy="102" r="2"></circle>
            </g>
        </g>
    </g>
</svg>