<?xml version="1.0" encoding="UTF-8"?>
<svg width="567px" height="281px" viewBox="0 0 567 281" version="1.1" xmlns="http://www.w3.org/2000/svg" xmlns:xlink="http://www.w3.org/1999/xlink">
    <!-- Generator: Sketch 49.2 (51160) - http://www.bohemiancoding.com/sketch -->
    <title>view</title>
    <desc>Created with Sketch.</desc>
    <defs></defs>
    <g id="Page-1" stroke="none" stroke-width="1" fill="none" fill-rule="evenodd">
        <g id="view">
            <rect id="Rectangle-6" fill="#FFFFFF" x="0" y="0" width="567" height="281"></rect>
            <g id="pic1" transform="translate(51.000000, 55.000000)">
                <g id="Group-4" transform="translate(0.000000, 10.000000)">
                    <circle id="Oval-4" fill-opacity="0.873811141" fill="#DBEAFB" cx="119.5" cy="79.5" r="51.5"></circle>
                    <g id="Group" transform="translate(81.000000, 38.000000)">
                        <polygon id="Rectangle-4" fill="#3B99D9" points="30 31.0017468 81.979268 21.1796665 79.6718539 71.3296591 30 88"></polygon>
                        <polygon id="Rectangle-4" fill="#2F80B6" points="0 7.0488292 51.2675232 0 82 21.3145545 29.7741797 31"></polygon>
                        <polygon id="Rectangle-4" fill="#35495D" points="-2.84217094e-14 7 30 31.0793371 30 88 -2.84217094e-14 58.1196985"></polygon>
                    </g>
                    <path d="M135.66129,88 L175.33871,88" id="Line-4" stroke="#58D68D" stroke-linecap="square"></path>
                    <path d="M121,49.32 L121,16.68" id="Line-5" stroke="#58D68D" stroke-linecap="square"></path>
                    <path d="M95.3275862,82 L57.6724138,82" id="Line-6" stroke="#58D68D" stroke-linecap="square"></path>
                    <text id="controller" font-family="FZLTXHK--GBK1-0, Lantinghei SC" font-size="11" font-weight="300" fill="#4A90E2">
                        <tspan x="191" y="91">controller</tspan>
                    </text>
                    <text id="state" font-family="FZLTXHK--GBK1-0, Lantinghei SC" font-size="11" font-weight="300" fill="#4A90E2">
                        <tspan x="109" y="11">state</tspan>
                    </text>
                    <text id="template" font-family="FZLTXHK--GBK1-0, Lantinghei SC" font-size="11" font-weight="300" fill="#4A90E2">
                        <tspan x="7" y="85">template</tspan>
                    </text>
                    <text id="style" font-family="FZLTXHK--GBK1-0, Lantinghei SC" font-size="11" font-weight="300" fill="#4A90E2">
                        <tspan x="106" y="148">style</tspan>
                    </text>
                    <path d="M119,123.666667 L119,138.333333" id="Line-7" stroke="#58D68D" stroke-linecap="square"></path>
                    <circle id="Oval-3" fill="#58D68D" cx="136" cy="88" r="2"></circle>
                    <circle id="Oval-3" fill="#58D68D" cx="121" cy="50" r="2"></circle>
                    <circle id="Oval-3" fill="#58D68D" cx="96" cy="82" r="2"></circle>
                    <polygon id="Triangle" fill="#58D68D" transform="translate(177.000000, 88.000000) rotate(90.000000) translate(-177.000000, -88.000000) " points="177 86 179 90 175 90"></polygon>
                    <polygon id="Triangle" fill="#58D68D" points="121 14 123 18 119 18"></polygon>
                    <polygon id="Triangle" fill="#58D68D" transform="translate(56.000000, 82.000000) rotate(-90.000000) translate(-56.000000, -82.000000) " points="56 80 58 84 54 84"></polygon>
                    <polygon id="Triangle" fill="#58D68D" transform="translate(119.000000, 138.000000) rotate(-180.000000) translate(-119.000000, -138.000000) " points="119 136 121 140 117 140"></polygon>
                    <circle id="Oval-5" fill="#2F80B6" cx="104.5" cy="8.5" r="2.5"></circle>
                    <circle id="Oval-5" fill="#2F80B6" cx="185.5" cy="88.5" r="2.5"></circle>
                    <circle id="Oval-5" fill="#2F80B6" cx="101.5" cy="145.5" r="2.5"></circle>
                    <circle id="Oval-5" fill="#2F80B6" cx="2.5" cy="81.5" r="2.5"></circle>
                </g>
                <g id="Group-2" transform="translate(274.000000, 0.000000)">
                    <g id="Group-3" transform="translate(97.000000, 86.000000) rotate(-32.000000) translate(-97.000000, -86.000000) translate(35.000000, 24.000000)">
                        <ellipse id="Oval-2" stroke="#4A90E2" fill-opacity="0.340919384" fill="#DFEDFC" cx="63" cy="65" rx="58" ry="59"></ellipse>
                        <circle id="Oval" stroke="#FFFFFF" stroke-width="5" fill="#35495D" cx="62.5" cy="6.5" r="6.5"></circle>
                        <circle id="Oval" stroke="#FFFFFF" stroke-width="5" fill="#3B99D9" cx="6.5" cy="80.5" r="6.5"></circle>
                        <circle id="Oval" stroke="#FFFFFF" stroke-width="5" fill="#2F80B6" cx="117.5" cy="81.5" r="6.5"></circle>
                        <path d="M0.6,65.5833333 L5.4,71.4166667" id="Line" stroke="#4A90E2" stroke-linecap="square"></path>
                        <path d="M115.5,90.6428571 L115.5,98.3571429" id="Line-2" stroke="#4A90E2" stroke-linecap="square"></path>
                        <path d="M72.5714286,6.33333333 L79.4285714,3.66666667" id="Line-3" stroke="#4A90E2" stroke-linecap="square"></path>
                    </g>
                    <text id="state" font-family="FZLTXHK--GBK1-0, Lantinghei SC" font-size="12" font-weight="300" fill="#F5A623">
                        <tspan x="161" y="76">state</tspan>
                    </text>
                    <text id="template" font-family="FZLTXHK--GBK1-0, Lantinghei SC" font-size="12" font-weight="300" fill="#4A90E2">
                        <tspan x="12" y="42">template</tspan>
                    </text>
                    <text id="controller" font-family="FZLTXHK--GBK1-0, Lantinghei SC" font-size="12" font-weight="300" fill="#417505">
                        <tspan x="0" y="134">controller</tspan>
                    </text>
                    <text id="commit" transform="translate(140.302141, 137.578648) rotate(-38.000000) translate(-140.302141, -137.578648) " font-family="FZLTXHK--GBK1-0, Lantinghei SC" font-size="9" font-weight="300" fill="#4A90E2">
                        <tspan x="124.302141" y="140.578648">commit</tspan>
                    </text>
                    <text id="refresh" transform="translate(139.267228, 35.473928) rotate(37.000000) translate(-139.267228, -35.473928) " font-family="FZLTXHK--GBK1-0, Lantinghei SC" font-size="9" font-weight="300" fill="#4A90E2">
                        <tspan x="123.767228" y="38.4739285">refresh</tspan>
                    </text>
                    <text id="event" transform="translate(36.127911, 75.528860) rotate(-79.000000) translate(-36.127911, -75.528860) " font-family="FZLTXHK--GBK1-0, Lantinghei SC" font-size="9" font-weight="300" fill="#4A90E2">
                        <tspan x="23.6279113" y="78.5288602">event</tspan>
                    </text>
                    <text id="effect-circle" font-family="FZLTXHK--GBK1-0, Lantinghei SC" font-size="13" font-weight="300" fill="#4A4A4A">
                        <tspan x="66" y="92">effect circle</tspan>
                    </text>
                </g>
            </g>
        </g>
    </g>
</svg>