<?xml version="1.0" encoding="UTF-8"?>
<svg width="418px" height="206px" viewBox="0 0 418 206" version="1.1" xmlns="http://www.w3.org/2000/svg" xmlns:xlink="http://www.w3.org/1999/xlink">
    <!-- Generator: Sketch 49.2 (51160) - http://www.bohemiancoding.com/sketch -->
    <title>process</title>
    <desc>Created with Sketch.</desc>
    <defs></defs>
    <g id="Page-1" stroke="none" stroke-width="1" fill="none" fill-rule="evenodd">
        <g id="process">
            <rect id="Rectangle-6" fill="#FFFFFF" x="0" y="0" width="418" height="206"></rect>
            <g id="Group-12" transform="translate(53.000000, 25.000000)">
                <path d="M58.5,106.5 L3.5,136.5" id="Line-20" stroke="#356FB2" stroke-linecap="square"></path>
                <polygon id="Rectangle-7" fill-opacity="0.1" fill="#364F6A" points="82.1997829 114 301 114 248.126603 139.179958 28 139.179958"></polygon>
                <path d="M3.5,94.5 L58.5833333,94.5" id="Line-20" stroke="#356FB2" stroke-linecap="square"></path>
                <polygon id="Rectangle-5" fill="#35495D" points="58 66.5542358 109.289609 43 109.289609 114.457411 58 138.749238"></polygon>
                <polygon id="Rectangle-5" fill="#3B99D9" points="129 66.5542358 180.289609 43 180.289609 114.457411 129 138.749238"></polygon>
                <polygon id="Rectangle-5" fill="#69BDF4" points="208 66.5542358 259.289609 43 259.289609 114.457411 208 138.749238"></polygon>
                <rect id="Rectangle-7" fill-opacity="0.1" fill="#4A90E2" x="109" y="43" width="151" height="72"></rect>
                <path d="M84.3,94.5 L127.5,94.5" id="Line-18" stroke="#356FB2" stroke-linecap="square"></path>
                <text id="dataset" transform="translate(149.641716, 44.306606) rotate(-24.000000) translate(-149.641716, -44.306606) " font-family="PingFangSC-Regular, PingFang SC" font-size="12" font-weight="normal" fill="#37383B">
                    <tspan x="128.641716" y="48.8066059">dataset</tspan>
                </text>
                <text id="DDM" transform="translate(226.246898, 45.459449) rotate(-24.000000) translate(-226.246898, -45.459449) " font-family="PingFangSC-Regular, PingFang SC" font-size="12" font-weight="normal" fill="#37383B">
                    <tspan x="212.246898" y="49.9594494">DDM</tspan>
                </text>
                <text id="controller" transform="translate(73.666216, 45.543657) rotate(-24.000000) translate(-73.666216, -45.543657) " font-family="PingFangSC-Regular, PingFang SC" font-size="12" font-weight="normal" fill="#37383B">
                    <tspan x="47.1662161" y="50.0436574">controller</tspan>
                </text>
                <polyline id="Path-9" stroke="#356FB2" points="84 127.591909 84 146.820347 244.175915 146.820347 244.175915 95 234.916573 95"></polyline>
                <path d="M164.278654,107.979527 C173.092838,103.742678 177.509093,94.4731772 174.036596,87.2755186 C170.516419,80.0778601 160.299499,77.6776503 151.322506,81.9145 C142.414964,86.1513497 138.265587,95.4208502 141.948573,102.618509 C145.583879,109.816167 155.533921,112.216377 164.278654,107.979527 Z" id="Oval-17" stroke="#356FB2" transform="translate(157.914960, 94.947014) rotate(-25.000000) translate(-157.914960, -94.947014) "></path>
                <circle id="Oval-16" fill="#356FB2" cx="85" cy="94" r="3"></circle>
                <circle id="Oval-16" fill="#356FB2" cx="142" cy="102" r="3"></circle>
                <circle id="Oval-16" fill="#356FB2" cx="235" cy="95" r="3"></circle>
                <polygon id="Triangle-4" fill="#356FB2" points="129 94.5 124 97 124 92"></polygon>
                <polygon id="Triangle-4" fill="#356FB2" transform="translate(84.000000, 130.000000) rotate(-90.000000) translate(-84.000000, -130.000000) " points="87 130 81 133 81 127"></polygon>
                <polygon id="Triangle-4" fill="#356FB2" transform="translate(2.500000, 94.500000) rotate(180.000000) translate(-2.500000, -94.500000) " points="5 94.5 0 97 0 92"></polygon>
                <polygon id="Triangle-4" fill="#356FB2" transform="translate(3.415064, 136.415064) rotate(150.000000) translate(-3.415064, -136.415064) " points="5.91506351 136.415064 0.915063509 138.915064 0.915063509 133.915064"></polygon>
                <polygon id="Triangle-4" fill="#356FB2" transform="translate(175.500000, 87.500000) rotate(-90.000000) translate(-175.500000, -87.500000) " points="175.5 85 178 90 173 90"></polygon>
                <polygon id="Triangle-4" fill="#356FB2" transform="translate(149.516166, 82.516166) rotate(-129.000000) translate(-149.516166, -82.516166) " points="149.516166 80.0161659 152.016166 85.0161659 147.016166 85.0161659"></polygon>
                <polygon id="Triangle-4" fill="#356FB2" transform="translate(205.500000, 102.500000) rotate(90.000000) translate(-205.500000, -102.500000) " points="205.5 100 208 105 203 105"></polygon>
                <polyline id="Path-10" stroke="#356FB2" points="182.927161 74.0182603 195.270526 66.9577885 195.270526 11"></polyline>
                <polygon id="Triangle-4" fill="#356FB2" transform="translate(182.362493, 74.362493) rotate(243.000000) translate(-182.362493, -74.362493) " points="182.362493 71.8624926 184.862493 76.8624926 179.862493 76.8624926"></polygon>
                <circle id="Oval-16" fill="#356FB2" cx="195" cy="11" r="3"></circle>
                <path d="M174.5,87.5 L207.5,87.5" id="Line-21" stroke="#356FB2" stroke-linecap="square"></path>
                <path d="M143.5,102.5 L206.5,102.5" id="Line-22" stroke="#356FB2" stroke-linecap="square"></path>
                <text id="dom-event" font-family="FZLTXHK--GBK1-0, Lantinghei SC" font-size="6" font-weight="300" fill="#4A90E2">
                    <tspan x="147" y="153">dom event</tspan>
                </text>
                <text id="data-pipe" font-family="FZLTXHK--GBK1-0, Lantinghei SC" font-size="6" font-weight="300" fill="#4A90E2">
                    <tspan x="183" y="6">data pipe</tspan>
                </text>
                <text id="view-event" font-family="FZLTXHK--GBK1-0, Lantinghei SC" font-size="6" font-weight="300" fill="#4A90E2">
                    <tspan x="11" y="91">view event</tspan>
                </text>
                <text id="action" font-family="FZLTXHK--GBK1-0, Lantinghei SC" font-size="6" font-weight="300" fill="#4A90E2">
                    <tspan x="106" y="92">action</tspan>
                </text>
                <text id="collect" font-family="FZLTXHK--GBK1-0, Lantinghei SC" font-size="6" font-weight="300" fill="#4A90E2">
                    <tspan x="187" y="85">collect</tspan>
                </text>
                <text id="check-change" font-family="FZLTXHK--GBK1-0, Lantinghei SC" font-size="6" font-weight="300" fill="#35383C">
                    <tspan x="162" y="109">check change</tspan>
                </text>
                <text id="methods" transform="translate(29.356205, 127.634921) rotate(-28.000000) translate(-29.356205, -127.634921) " font-family="FZLTXHK--GBK1-0, Lantinghei SC" font-size="6" font-weight="300" fill="#4A90E2">
                    <tspan x="16.356205" y="129.634921">methods</tspan>
                </text>
            </g>
        </g>
    </g>
</svg>