<?xml version="1.0" encoding="UTF-8"?>
<svg width="418px" height="206px" viewBox="0 0 418 206" version="1.1" xmlns="http://www.w3.org/2000/svg" xmlns:xlink="http://www.w3.org/1999/xlink">
    <!-- Generator: Sketch 49.2 (51160) - http://www.bohemiancoding.com/sketch -->
    <title>pwa</title>
    <desc>Created with Sketch.</desc>
    <defs></defs>
    <g id="Page-1" stroke="none" stroke-width="1" fill="none" fill-rule="evenodd">
        <g id="pwa">
            <rect id="Rectangle-6" fill="#FFFFFF" x="0" y="0" width="418" height="206"></rect>
            <g id="Group-11" transform="translate(22.000000, 44.000000)">
                <g id="Group-10">
                    <g id="Group-5" transform="translate(0.000000, 21.000000)">
                        <circle id="Oval-13" stroke="#C6CCD3" fill-opacity="0.340155118" fill="#D6E5F7" cx="108" cy="40" r="40"></circle>
                        <text id="app.js" font-family="FZLTXHK--GBK1-0, Lantinghei SC" font-size="10" font-weight="300" fill="#122F52">
                            <tspan x="94" y="42">app.js</tspan>
                        </text>
                        <text id="html-sets" font-family="FZLTXHK--GBK1-0, Lantinghei SC" font-size="10" font-weight="300" fill="#122F52">
                            <tspan x="148" y="16">html sets</tspan>
                        </text>
                        <text id="manifest.json" font-family="FZLTXHK--GBK1-0, Lantinghei SC" font-size="10" font-weight="300" fill="#122F52">
                            <tspan x="4" y="17">manifest.json</tspan>
                        </text>
                        <text id="serviceworker" font-family="FZLTXHK--GBK1-0, Lantinghei SC" font-size="10" font-weight="300" fill="#122F52">
                            <tspan x="0" y="71">serviceworker</tspan>
                        </text>
                        <text id="pack-config" font-family="FZLTXHK--GBK1-0, Lantinghei SC" font-size="10" font-weight="300" fill="#122F52">
                            <tspan x="148" y="71">pack config</tspan>
                        </text>
                        <circle id="Oval-14" stroke="#FFFFFF" stroke-width="4" fill="#35495D" cx="80" cy="14" r="6"></circle>
                        <circle id="Oval-14" stroke="#FFFFFF" stroke-width="4" fill="#35495D" cx="137" cy="14" r="6"></circle>
                        <circle id="Oval-14" stroke="#FFFFFF" stroke-width="4" fill="#35495D" cx="137" cy="68" r="6"></circle>
                        <circle id="Oval-14" stroke="#FFFFFF" stroke-width="4" fill="#35495D" cx="80" cy="68" r="6"></circle>
                    </g>
                    <path d="M151.5,64.5 L286.5,64.5" id="Line-11" stroke="#50E3C2" stroke-linecap="square"></path>
                    <circle id="Oval-15" fill="#50E3C2" cx="154" cy="64" r="3"></circle>
                    <g id="Group-9" transform="translate(309.000000, 0.000000)">
                        <rect id="Rectangle-2" fill="#F7F0F0" x="0" y="0" width="65" height="88" rx="4"></rect>
                        <rect id="Rectangle-3" fill="#E9E3E3" x="7" y="11" width="52" height="9" rx="4"></rect>
                        <rect id="Rectangle-3" fill="#E9E3E3" x="7" y="23" width="13" height="55" rx="4"></rect>
                        <rect id="Rectangle-3" fill="#E9E3E3" x="23" y="23" width="36" height="17" rx="4"></rect>
                        <rect id="Rectangle-3" fill="#E9E3E3" x="23" y="43" width="36" height="17" rx="4"></rect>
                        <rect id="Rectangle-3" fill="#E9E3E3" x="23" y="63" width="36" height="15" rx="4"></rect>
                    </g>
                    <g id="Group-9" transform="translate(296.000000, 15.000000)">
                        <rect id="Rectangle-2" fill="#F7F0F0" x="0" y="0" width="65" height="88" rx="4"></rect>
                        <rect id="Rectangle-3" fill="#E9E3E3" x="7" y="11" width="52" height="9" rx="4"></rect>
                        <rect id="Rectangle-3" fill="#E9E3E3" x="7" y="23" width="13" height="55" rx="4"></rect>
                        <rect id="Rectangle-3" fill="#E9E3E3" x="23" y="23" width="36" height="17" rx="4"></rect>
                        <rect id="Rectangle-3" fill="#E9E3E3" x="23" y="43" width="36" height="17" rx="4"></rect>
                        <rect id="Rectangle-3" fill="#E9E3E3" x="23" y="63" width="36" height="15" rx="4"></rect>
                    </g>
                    <g id="Group-9" transform="translate(285.000000, 29.000000)">
                        <rect id="Rectangle-2" fill="#F7F0F0" x="0" y="0" width="65" height="88" rx="4"></rect>
                        <rect id="Rectangle-3" fill="#E9E3E3" x="7" y="11" width="52" height="9" rx="4"></rect>
                        <rect id="Rectangle-3" fill="#E9E3E3" x="7" y="23" width="13" height="55" rx="4"></rect>
                        <rect id="Rectangle-3" fill="#E9E3E3" x="23" y="23" width="36" height="17" rx="4"></rect>
                        <rect id="Rectangle-3" fill="#E9E3E3" x="23" y="43" width="36" height="17" rx="4"></rect>
                        <rect id="Rectangle-3" fill="#E9E3E3" x="23" y="63" width="36" height="15" rx="4"></rect>
                    </g>
                </g>
                <polygon id="Triangle-5" fill="#50E3C2" transform="translate(354.000000, 78.000000) rotate(180.000000) translate(-354.000000, -78.000000) " points="358 78 350 82 350 74"></polygon>
                <polygon id="Triangle-5" fill="#50E3C2" transform="translate(375.500000, 56.500000) rotate(180.000000) translate(-375.500000, -56.500000) " points="378 56.5 373 59 373 54"></polygon>
                <polygon id="Triangle-5" fill="#50E3C2" transform="translate(363.500000, 64.500000) rotate(180.000000) translate(-363.500000, -64.500000) " points="366 64.5 361 67 361 62"></polygon>
                <polyline id="Path-11" stroke="#50E3C2" points="350.476631 77.5587879 366.990673 77.5587879 386.682355 56.2246623 374.522697 56.2246623"></polyline>
                <path d="M361.5,64.5 L378.5,64.5" id="Line-12" stroke="#50E3C2" stroke-linecap="square"></path>
                <text id="create" font-family="FZLTXHK--GBK1-0, Lantinghei SC" font-size="10" font-weight="300" fill="#4A90E2">
                    <tspan x="212" y="62">create</tspan>
                </text>
            </g>
        </g>
    </g>
</svg>